<svg xmlns="http://www.w3.org/2000/svg" width="225" height="225" style="shape-rendering:geometricPrecision; text-rendering:geometricPrecision; image-rendering:optimizeQuality; fill-rule:evenodd; clip-rule:evenodd">
  <path fill="#fdfdfd" d="M-.5-.5h225v225H-.5V-.5Z" style="opacity:1"/>
  <path fill="#040404" d="M91.5 7.5c24.638-2.131 47.471 3.202 68.5 16 18.432-15.673 27.099-11.34 26 13 9.539 16.026 13.872 33.36 13 52-1.732 11.653-7.565 20.486-17.5 26.5l-16 6c8.633 3.324 17.3 6.657 26 10 7.424 3.288 13.591 8.121 18.5 14.5 1.856 5.252.022 7.919-5.5 8a44 44 0 0 1-14-5l-1 1c5.981 4.113 7.315 9.28 4 15.5-5.252-.058-9.086-2.558-11.5-7.5.374 2.775 1.374 5.442 3 8 1.439 6.129-.894 9.796-7 11-2.503-.49-4.503-1.823-6-4a103.297 103.297 0 0 1-10-30 166.016 166.016 0 0 1-13 33l-6.5 8.5c-3.779 3.553-8.112 6.053-13 7.5.166 8.007 0 16.007-.5 24-1.011.837-2.178 1.17-3.5 1v-23a72.257 72.257 0 0 1-19-2c.166 8.007 0 16.007-.5 24a3.647 3.647 0 0 1-1.5 1 366.68 366.68 0 0 1-1.5-27c-9.232-4.565-16.565-11.231-22-20a164.341 164.341 0 0 1-12.5-28 196.013 196.013 0 0 1-9.5 23c-2.199 3.052-5.032 5.052-8.5 6-4.667 0-7-2.333-7-7 .725-3.95 2.392-7.45 5-10.5-.667-.667-1.333-.667-2 0-2.816 4.504-6.65 6.004-11.5 4.5-1.124-5.924.71-10.758 5.5-14.5-4.9.877-9.9 1.711-15 2.5-3.75.749-5.416-.751-5-4.5a11.53 11.53 0 0 1 1.5-5.5c5.626-5.233 12.126-9.066 19.5-11.5a487.979 487.979 0 0 0 21-6C32.294 110.786 21.127 91.952 29 61.5A801.223 801.223 0 0 1 39.5 37c-2.206-6.36-3.373-12.86-3.5-19.5 1.255-2.094 3.088-3.094 5.5-3a62.302 62.302 0 0 1 15.5 6c10.986-5.919 22.486-10.252 34.5-13Z" style="opacity:1"/>
  <path fill="#f6f6f6" d="M62.5 36.5c7.734-.817 14.734 1.017 21 5.5 12.823 10.14 18.656 23.307 17.5 39.5-6.363 15.941-18.196 22.774-35.5 20.5C47.148 96.657 38.648 84.49 40 65.5c4.043-12.52 11.543-22.187 22.5-29Z" style="opacity:1"/>
  <path fill="#0f0f0f" d="M58.5 71.5c-.767-.672-1.434-1.505-2-2.5a247.5 247.5 0 0 1-11-1.5v-3c3.654.442 7.321.776 11 1-.28-2.772.387-5.272 2-7.5a26.92 26.92 0 0 0-5.5-6.5c-.75-1.135-.583-2.135.5-3a64.271 64.271 0 0 1 7 6.5c2.982.498 5.982.665 9 .5a57.124 57.124 0 0 1 1-15c.586.21 1.086.543 1.5 1 .5 4.989.666 9.989.5 15 1.9-.067 3.734.267 5.5 1a99.383 99.383 0 0 0 7.5-5.5c1.135-.75 2.135-.583 3 .5a18.685 18.685 0 0 1-6.5 6c-.348 3.102.152 6.102 1.5 9a89.314 89.314 0 0 0 12 1.5c.457.414.79.914 1 1.5a100.197 100.197 0 0 1-14 1.5 37.12 37.12 0 0 0-2 4.5 162.874 162.874 0 0 1 10 11.5c-.775 1.23-1.775 1.563-3 1a60.743 60.743 0 0 0-9-9.5 18.338 18.338 0 0 1-6 4 86.7 86.7 0 0 0-1.5 13c-.414.457-.914.79-1.5 1l-2-15a31.857 31.857 0 0 1-5-4.5c-1.789-.52-3.456-.187-5 1a18.723 18.723 0 0 1-7 5.5l-1-1.5a86.916 86.916 0 0 1 8-7.5c.929-1.189 1.262-2.522 1-4Z" style="opacity:1"/>
  <path fill="#f5f5f5" d="M146.5 42.5c20.55-1.137 33.717 8.196 39.5 28 1.524 22.96-9.143 35.626-32 38-23.054-1.715-34.054-14.048-33-37 2.717-14.876 11.217-24.543 25.5-29Z" style="opacity:1"/>
  <path fill="#0d0d0d" d="M152.5 46.5h3a43.116 43.116 0 0 0 1 13 17.533 17.533 0 0 1 6 3 55.454 55.454 0 0 1 7-5.5c1.135-.75 2.135-.583 3 .5a18.685 18.685 0 0 1-6.5 6c-.667 1-.667 2 0 3a21.46 21.46 0 0 1 3.5 6.5l10 1c.457.414.791.914 1 1.5a31.12 31.12 0 0 1-11 1c-.424 2.854-1.424 5.52-3 8a64.31 64.31 0 0 0 6.5 7c.749 1.135.583 2.135-.5 3l-9-8c-2.443 1.555-5.11 2.222-8 2a84.9 84.9 0 0 1-.5 13 3.647 3.647 0 0 1-1.5 1l-2-15a31.152 31.152 0 0 1-6-4.5c-1-.667-2-.667-3 0a25.034 25.034 0 0 1-8 6.5c-1.083-.865-1.249-1.865-.5-3a45.596 45.596 0 0 0 8.5-7.5 22.697 22.697 0 0 0-2-5 62.687 62.687 0 0 1-11-1.5 3.647 3.647 0 0 0-1-1.5 72.442 72.442 0 0 1 12-.5 13.142 13.142 0 0 1 2-6c-1.566-3.075-3.733-5.742-6.5-8-.563-1.225-.23-2.225 1-3l9 9c1.87-1.719 4.037-2.719 6.5-3v-13Z" style="opacity:1"/>
  <path fill="#d9d9d9" d="M62.5 59.5c1.175-.219 2.175.114 3 1-4.963 8.328-5.963 7.995-3-1Z" style="opacity:1"/>
  <path fill="#e3e3e3" d="M146.5 64.5c1.478-.262 2.811.071 4 1a28.061 28.061 0 0 0-5 5c-1.27-2.257-.936-4.257 1-6Z" style="opacity:1"/>
  <path fill="#dadada" d="M58.5 71.5c.64-1.832 1.64-2.165 3-1-.825.886-1.825 1.219-3 1Z" style="opacity:1"/>
  <path fill="#d7d7d7" d="M144.5 73.5c1.965.448 2.298 1.448 1 3-.886-.825-1.219-1.825-1-3Z" style="opacity:1"/>
  <path fill="#f5f5f5" d="M107.5 89.5c9.066-1.434 12.233 2.233 9.5 11-2.83 11.572-6.496 11.905-11 1a33.725 33.725 0 0 1-1.5-11c1.291.237 2.291-.096 3-1Z" style="opacity:1"/>
  <path fill="#f9f9f9" d="M119.5 99.5a269.011 269.011 0 0 1 28.5 19c9.004 21.181 4.504 39.014-13.5 53.5-14.548 9.699-28.048 8.532-40.5-3.5-7.435-9.872-12.435-20.872-15-33-2.695-10.191-.195-18.691 7.5-25.5a52.903 52.903 0 0 1 16.5-7.5c7.776 12.746 13.276 11.746 16.5-3Z" style="opacity:1"/>
  <path fill="#161616" d="M105.5 121.5c2.88-.467 5.213.366 7 2.5-.405.945-1.072 1.612-2 2a18.453 18.453 0 0 1-6 .5 20.69 20.69 0 0 1 1-5Z" style="opacity:1"/>
  <path fill="#0e0e0e" d="M86.5 122.5c5.942-.593 7.442 1.741 4.5 7-3.493 3.002-5.993 2.335-7.5-2a11.956 11.956 0 0 1 3-5Z" style="opacity:1"/>
  <path fill="#070707" d="M125.5 124.5a12.93 12.93 0 0 1 5 .5c1.333 1.333 1.333 2.667 0 4a18.453 18.453 0 0 1-6 .5c-.134-1.792.199-3.458 1-5Z" style="opacity:1"/>
  <path fill="#101010" d="M139.5 131.5a18.453 18.453 0 0 1 6 .5c2.015 1.555 2.348 3.389 1 5.5-6.168 2.158-8.501.158-7-6Z" style="opacity:1"/>
  <path fill="#0f0f0f" d="M106.5 136.5c4.494.659 6.161 3.325 5 8-5.888.242-7.555-2.424-5-8Z" style="opacity:1"/>
  <path fill="#111" d="M89.5 143.5c5.283.7 5.95 2.533 2 5.5a8.43 8.43 0 0 1-4 .5c-.241-2.386.425-4.386 2-6Z" style="opacity:1"/>
  <path fill="#1c1c1c" d="M125.5 142.5c4.682 1.213 6.015 4.046 4 8.5-6.019-.555-7.353-3.388-4-8.5Z" style="opacity:1"/>
  <path fill="#0a0a0a" d="M139.5 147.5a12.93 12.93 0 0 1 5 .5c1.333 1.333 1.333 2.667 0 4a18.453 18.453 0 0 1-6 .5c-.134-1.792.199-3.458 1-5Z" style="opacity:1"/>
  <path fill="#080808" d="M99.5 153.5c4.494.659 6.161 3.325 5 8-5.694-.098-7.36-2.765-5-8Z" style="opacity:1"/>
  <path fill="#101010" d="M124.5 159.5c4.855-.536 7.021 1.464 6.5 6-2.064 1.091-4.231 1.258-6.5.5-2.561-2.156-2.561-4.323 0-6.5Z" style="opacity:1"/>
  <path fill="#111" d="M108.5 164.5c6.279.06 7.279 2.227 3 6.5-5.352.175-6.352-1.991-3-6.5Z" style="opacity:1"/>
</svg>